<?xml version="1.0" encoding="UTF-8"?>
<svg version="1.1" xmlns="http://www.w3.org/2000/svg" width="641" height="155">
<path d="M0 0 C3.07831683 2.42216767 5.33830116 5.25580713 7.72265625 8.35546875 C8.05265625 5.05546875 8.38265625 1.75546875 8.72265625 -1.64453125 C12.35265625 -1.64453125 15.98265625 -1.64453125 19.72265625 -1.64453125 C19.79235848 8.23953982 19.84556987 18.1235518 19.87809277 28.00781918 C19.89370705 32.59815631 19.91486737 37.18832452 19.94897461 41.77856445 C19.9817199 46.2135794 19.99954109 50.64843247 20.00728798 55.08355904 C20.01280438 56.77033598 20.02357623 58.45710469 20.03984642 60.14381218 C20.21501932 79.06703325 20.21501932 79.06703325 14.53515625 87.66796875 C6.89855497 94.96516553 -2.82311012 96.77501577 -13.140625 96.71899414 C-22.66362338 96.47236953 -29.74444326 93.5493821 -36.71875 87.0390625 C-38.27734375 85.35546875 -38.27734375 85.35546875 -40.27734375 82.35546875 C-42.37593747 81.89910588 -42.37593747 81.89910588 -44.84945107 81.97070789 C-46.30277507 81.95652308 -46.30277507 81.95652308 -47.78545916 81.94205171 C-48.85742616 81.94689928 -49.92939315 81.95174686 -51.03384399 81.95674133 C-52.16669685 81.95009451 -53.2995497 81.94344768 -54.46673143 81.93659943 C-58.28862015 81.91784577 -62.11019922 81.92058306 -65.93212891 81.9230957 C-68.66146645 81.91574953 -71.39077995 81.90389289 -74.12010193 81.89221191 C-80.00943207 81.86937916 -85.89870289 81.85753278 -91.78807449 81.85308266 C-100.30317061 81.8466327 -108.81815927 81.82371579 -117.33321218 81.79673936 C-131.14725657 81.75342428 -144.96129645 81.72348454 -158.77539062 81.7019043 C-172.19696268 81.68090872 -185.61849778 81.65364609 -199.04003906 81.61791992 C-199.86691139 81.6157211 -200.69378372 81.61352227 -201.54571278 81.61125682 C-205.69375953 81.60018752 -209.84180594 81.58899464 -213.98985219 81.57774031 C-248.41898487 81.4844884 -282.84813315 81.41292145 -317.27734375 81.35546875 C-317.27734375 79.37546875 -317.27734375 77.39546875 -317.27734375 75.35546875 C-280.80040205 75.21819039 -244.32350558 75.11243871 -207.84635882 75.04907677 C-203.54169648 75.04157237 -199.23703464 75.03380645 -194.93237305 75.02587891 C-193.64688072 75.02351811 -193.64688072 75.02351811 -192.33541884 75.02110963 C-178.45185207 74.99498868 -164.56843409 74.94767409 -150.68495563 74.89255197 C-136.44339449 74.83647897 -122.20191137 74.80312373 -107.96024436 74.79093778 C-99.16949111 74.78269748 -90.37915838 74.75665487 -81.58853456 74.70796995 C-75.56368298 74.67629867 -69.53904937 74.666658 -63.51412056 74.67446049 C-60.03582985 74.67831065 -56.55827484 74.67233428 -53.08011436 74.6402359 C-49.31089856 74.61050976 -45.54350157 74.61751381 -41.77424622 74.63394165 C-40.12103929 74.60772608 -40.12103929 74.60772608 -38.43443424 74.5809809 C-31.16850117 74.66694884 -31.16850117 74.66694884 -28.56848276 76.67575717 C-27.2501936 78.28728294 -27.2501936 78.28728294 -25.27734375 81.35546875 C-18.71556475 85.23897061 -12.41031017 86.42589032 -4.8984375 84.859375 C0.08493543 83.40623331 2.9059229 81.93266045 5.72265625 77.35546875 C7.37762981 74.04552162 6.8234996 70.36423875 6.78515625 66.73046875 C6.77838867 65.52777344 6.77838867 65.52777344 6.77148438 64.30078125 C6.75968793 62.31897869 6.7417523 60.33721442 6.72265625 58.35546875 C5.83513672 59.52142578 5.83513672 59.52142578 4.9296875 60.7109375 C0.99747849 65.42262865 -2.70225955 67.07408538 -8.81640625 67.7421875 C-19.20792361 68.04414542 -26.98755682 66.30781259 -34.7109375 59.17578125 C-41.36723046 51.44053806 -43.82523684 40.86632733 -43.5234375 30.8359375 C-42.4079141 19.59216987 -39.23541282 10.76180493 -30.90234375 2.98046875 C-22.33669317 -3.72308388 -9.67043749 -5.68728489 0 0 Z M-24 11.80078125 C-30.65474262 18.8315904 -31.80839613 26.7836124 -31.56640625 36.19921875 C-30.9533389 42.89325147 -29.10978442 48.52302808 -24.27734375 53.35546875 C-18.92733491 57.10047494 -13.79542691 58.19536694 -7.27734375 57.35546875 C-1.38946976 55.45790347 2.27636525 52.42354376 5.72265625 47.35546875 C7.75239453 42.48409687 8.07419529 38.17266173 8.03515625 32.98046875 C8.0309668 32.22604492 8.02677734 31.47162109 8.02246094 30.69433594 C7.86478504 22.95479761 6.30859218 17.10569691 0.72265625 11.35546875 C-6.35256111 5.52881916 -17.1010673 6.01256107 -24 11.80078125 Z " fill="#06b6d4" transform="translate(403.27734375,55.64453125)"/>
<path d="M0 0 C3.66033753 0.07039111 5.30535421 0.19383018 7.953125 2.78515625 C9.64702967 5.40334369 11.20826247 8.07122315 12.73681641 10.78857422 C15.07064957 14.72258742 17.7875345 18.40016951 20.4375 22.125 C21.64955641 23.84947453 22.86046127 25.5747589 24.0703125 27.30078125 C24.69711914 28.19361816 25.32392578 29.08645508 25.96972656 30.00634766 C29.42623712 34.9355204 32.87081432 39.87296875 36.3125 44.8125 C36.95380859 45.73071533 37.59511719 46.64893066 38.25585938 47.5949707 C42.91020333 54.27808507 47.41747042 61.03245563 51.9375 67.8125 C52.2675 45.7025 52.5975 23.5925 52.9375 0.8125 C56.5675 0.8125 60.1975 0.8125 63.9375 0.8125 C63.9375 29.8525 63.9375 58.8925 63.9375 88.8125 C52.9375 88.8125 52.9375 88.8125 49.984375 86.3046875 C49.18056799 85.12406955 48.41698235 83.91543321 47.6875 82.6875 C47.24897705 82.02516357 46.8104541 81.36282715 46.35864258 80.68041992 C45.38701511 79.20967219 44.43110659 77.72845396 43.48876953 76.23876953 C41.25013306 72.73742089 38.88679097 69.32547407 36.53198242 65.90161133 C34.60856027 63.10106337 32.70157114 60.28987211 30.796875 57.4765625 C26.49150778 51.13628767 22.09700858 44.86006778 17.68041992 38.59692383 C17.14521729 37.83661865 16.61001465 37.07631348 16.05859375 36.29296875 C15.5989624 35.64223389 15.13933105 34.99149902 14.66577148 34.32104492 C12.04415464 30.51583048 9.50070303 26.65730455 6.9375 22.8125 C6.6075 44.5925 6.2775 66.3725 5.9375 88.8125 C1.9775 88.8125 -1.9825 88.8125 -6.0625 88.8125 C-6.08562255 77.4863837 -6.10341464 66.16027297 -6.11431217 54.83413792 C-6.11954119 49.57553336 -6.12663918 44.3169449 -6.13793945 39.05834961 C-6.14876766 33.98796873 -6.15477669 28.91760338 -6.15737724 23.84721184 C-6.15923161 21.90823052 -6.16285245 19.96925009 -6.16823006 18.03027534 C-6.1754396 15.3242824 -6.17649098 12.61835444 -6.17602539 9.91235352 C-6.17962067 9.10243454 -6.18321594 8.29251556 -6.18692017 7.45805359 C-6.17558229 1.40911081 -6.07195504 0.62640527 0 0 Z " fill="#06b6d4" transform="translate(484.0625,35.1875)"/>
<path d="M0 0 C57.42 0 114.84 0 174 0 C174 39.6 174 79.2 174 120 C116.58 120 59.16 120 0 120 C0 80.4 0 40.8 0 0 Z M5 5 C5 41.3 5 77.6 5 115 C59.12 115 113.24 115 169 115 C169 78.7 169 42.4 169 5 C114.88 5 60.76 5 5 5 Z " fill="#FFFFFF" transform="translate(467,20)"/>
<path d="M0 0 C3.63 0 7.26 0 11 0 C11 31.02 11 62.04 11 94 C7.37 94 3.74 94 0 94 C-0.495 89.545 -0.495 89.545 -1 85 C-1.61875 85.81404297 -1.61875 85.81404297 -2.25 86.64453125 C-7.1142829 92.67059601 -10.89627709 95.39460344 -18.6015625 96.30859375 C-26.94245778 96.69626916 -34.03303936 94.47879977 -40.75 89.5 C-46.44329405 84.23842493 -50.55591669 75.53787207 -51.17700195 67.79272461 C-51.52489896 54.22196934 -51.5980358 42.73417247 -42.63671875 31.71875 C-37.53443293 26.36074102 -32.0312297 23.3527326 -24.5625 22.69921875 C-22.7990625 22.69341797 -22.7990625 22.69341797 -21 22.6875 C-19.824375 22.67074219 -18.64875 22.65398438 -17.4375 22.63671875 C-11.03392792 23.31345989 -7.21775548 26.31360502 -3 31 C-2.34 31.99 -1.68 32.98 -1 34 C-0.67 22.78 -0.34 11.56 0 0 Z M-33.6484375 38.37890625 C-39.65498703 45.5832937 -40.67830875 54.99001212 -40 64 C-38.79947595 71.93006713 -36.1517908 77.72136661 -30 83 C-25.15244037 86.11264355 -19.54306545 85.5952285 -14 85 C-9.36398726 82.80843034 -5.53331578 79.50966143 -3 75 C0.61938779 64.72093868 1.7056466 53.90071822 -3.03515625 43.79296875 C-5.63288405 39.29079742 -8.21815117 36.29896578 -13 34 C-20.62070403 32.11920467 -27.60485365 32.93321706 -33.6484375 38.37890625 Z " fill="#FFFFFF" transform="translate(227,30)"/>
<path d="M0 0 C7.63203828 6.151576 11.79711744 13.81371222 13.7109375 23.3828125 C9.4209375 23.3828125 5.1309375 23.3828125 0.7109375 23.3828125 C0.2159375 22.0421875 -0.2790625 20.7015625 -0.7890625 19.3203125 C-3.54276499 13.12936436 -7.83436603 8.80757698 -14.12109375 6.21484375 C-22.25171522 4.07942775 -30.97929258 4.27289801 -38.46484375 8.2578125 C-46.56674748 13.25427561 -50.55811144 20.02379415 -52.78515625 29.19921875 C-54.77352549 41.76139651 -54.11726802 55.04537005 -46.9765625 65.8828125 C-42.62458902 71.58792059 -38.14933244 74.39408626 -31.2890625 76.3828125 C-23.11264844 77.27516226 -15.37772145 76.83035423 -8.2890625 72.3828125 C-3.39788605 68.12036951 -0.43985279 63.45563213 1.7109375 57.3828125 C5.3409375 57.3828125 8.9709375 57.3828125 12.7109375 57.3828125 C13.7109375 59.3828125 13.7109375 59.3828125 13.14453125 61.703125 C9.43349569 72.15223688 4.2354446 79.45750033 -5.2890625 85.3828125 C-16.96227501 90.64153695 -29.31806068 90.65475456 -41.2890625 86.3828125 C-53.40082998 80.02550468 -60.45791091 70.10378397 -64.52734375 57.27734375 C-68.24973909 43.13224146 -67.16599476 27.5800345 -60.828125 14.328125 C-59.41797392 11.91583609 -57.92498773 9.6462159 -56.2890625 7.3828125 C-55.6909375 6.4753125 -55.0928125 5.5678125 -54.4765625 4.6328125 C-40.03335611 -10.22305693 -16.69027783 -11.79142495 0 0 Z " fill="#FFFFFF" transform="translate(73.2890625,36.6171875)"/>
<path d="M0 0 C7.75870541 5.53859392 13.09322447 11.94245422 15.6015625 21.2265625 C17.48895699 34.36430848 16.86636054 47.07639547 9.3125 58.3125 C4.37369988 64.38622641 -2.25986037 68.66549317 -10 70 C-18.54473665 70.72636865 -26.51327857 70.16825505 -33.671875 65.11328125 C-42.25609874 57.83700876 -46.78539361 50.20137002 -48 39 C-48.98369405 27.05514365 -46.52691866 15.53183153 -39 6 C-29.01771766 -3.77560983 -12.54467283 -7.13591897 0 0 Z M-31 14 C-36.57996219 22.93860185 -37.60205328 32.89524197 -35.28125 43.1875 C-32.74569999 50.71235808 -29.13439181 55.31972295 -22 59 C-15.67603279 59.86816239 -9.27462333 59.89317436 -4 56 C2.36323433 50.48519692 4.1720232 43.887835 5.31640625 35.75 C5.74489343 28.23074112 3.66154429 19.90667268 -0.578125 13.68359375 C-4.89259261 9.02902172 -9.17567522 7.38243248 -15.5 6.75 C-21.75941153 7.37594115 -26.81521387 9.17419172 -31 14 Z " fill="#FFFFFF" transform="translate(147,56)"/>
<path d="M0 0 C6.7547602 4.42399679 9.95023036 10.4944369 11.77734375 18.1640625 C12.15709658 22.18331044 12.12873898 26.16505536 12.0703125 30.19921875 C12.06606766 31.31848251 12.06182281 32.43774628 12.05744934 33.59092712 C12.04076906 37.13639233 12.00313607 40.68127152 11.96484375 44.2265625 C11.94978318 46.64256987 11.93609718 49.05858622 11.92382812 51.47460938 C11.89090034 57.37131666 11.83919153 63.26759051 11.77734375 69.1640625 C7.81734375 69.1640625 3.85734375 69.1640625 -0.22265625 69.1640625 C-0.23200195 67.68607178 -0.24134766 66.20808105 -0.25097656 64.68530273 C-0.29094285 59.18532521 -0.35672125 53.68590312 -0.43017578 48.1862793 C-0.45834672 45.8090734 -0.47958045 43.43177452 -0.49365234 41.05444336 C-0.51513474 37.63086471 -0.56181498 34.20839961 -0.61328125 30.78515625 C-0.61450989 29.72759628 -0.61573853 28.67003632 -0.61700439 27.58042908 C-0.74181505 21.24762669 -1.47341375 17.32869585 -5.22265625 12.1640625 C-8.93413674 9.36654402 -13.30449811 8.92777132 -17.84765625 9.2265625 C-22.09427987 9.9148084 -24.95272366 11.2834076 -28.22265625 14.1640625 C-31.12145949 18.96208165 -32.31884226 23.19866529 -32.42797852 28.74902344 C-32.44792374 29.64965515 -32.46786896 30.55028687 -32.48841858 31.47821045 C-32.51348732 32.92372284 -32.51348732 32.92372284 -32.5390625 34.3984375 C-32.5598436 35.39159973 -32.58062469 36.38476196 -32.60203552 37.40802002 C-32.66735374 40.57663132 -32.72633364 43.74532461 -32.78515625 46.9140625 C-32.82835832 49.06381052 -32.87197316 51.21355028 -32.91601562 53.36328125 C-33.02301702 58.63012458 -33.12433447 63.89705028 -33.22265625 69.1640625 C-36.85265625 69.1640625 -40.48265625 69.1640625 -44.22265625 69.1640625 C-44.22265625 46.0640625 -44.22265625 22.9640625 -44.22265625 -0.8359375 C-40.59265625 -0.8359375 -36.96265625 -0.8359375 -33.22265625 -0.8359375 C-32.89265625 1.8040625 -32.56265625 4.4440625 -32.22265625 7.1640625 C-31.70316406 6.68195312 -31.18367188 6.19984375 -30.6484375 5.703125 C-29.60236328 4.75566406 -29.60236328 4.75566406 -28.53515625 3.7890625 C-27.85066406 3.16257812 -27.16617187 2.53609375 -26.4609375 1.890625 C-19.37425584 -3.57589034 -8.04992262 -3.64203687 0 0 Z " fill="#FFFFFF" transform="translate(333.22265625,54.8359375)"/>
<path d="M0 0 C21.78 0 43.56 0 66 0 C66 3.63 66 7.26 66 11 C57.09 11 48.18 11 39 11 C39 36.41 39 61.82 39 88 C35.04 88 31.08 88 27 88 C27 62.59 27 37.18 27 11 C18.09 11 9.18 11 0 11 C0 7.37 0 3.74 0 0 Z " fill="#06b6d4" transform="translate(564,36)"/>
<path d="M0 0 C3.96 0 7.92 0 12 0 C12 23.1 12 46.2 12 70 C8.04 70 4.08 70 0 70 C0 46.9 0 23.8 0 0 Z " fill="#FFFFFF" transform="translate(258,54)"/>
<path d="M0 0 C2.5 1.5625 2.5 1.5625 4 4 C4.5625 7.5 4.5625 7.5 4 11 C1.4511805 13.9236459 -0.19515606 14.84909176 -4 15.5625 C-8.14162899 14.78594456 -9.59321321 13.42784786 -12 10 C-12 6.48044581 -11.63108355 4.15079941 -9.9375 1.0625 C-6.73507415 -0.69366901 -3.50309274 -0.62026592 0 0 Z " fill="#FFFFFF" transform="translate(268,28)"/>
</svg>
